<?xml version="1.0" encoding="UTF-8"?>
<svg xmlns:xhtml="http://www.w3.org/1999/xhtml" xmlns:xlink="http://www.w3.org/1999/xlink" id="mermaid-svg-194" width="100%" xmlns="http://www.w3.org/2000/svg" class="flowchart" style="max-width: 100%;" viewBox="-19.793750000000003 -19.793750000000003 5419.2212890625 435.4625" height="100%"><style>#mermaid-svg-194{font-family:"trebuchet ms",verdana,arial,sans-serif;font-size:16px;fill:#333;}@keyframes edge-animation-frame{from{stroke-dashoffset:0;}}@keyframes dash{to{stroke-dashoffset:0;}}#mermaid-svg-194 .edge-animation-slow{stroke-dasharray:9,5!important;stroke-dashoffset:900;animation:dash 50s linear infinite;stroke-linecap:round;}#mermaid-svg-194 .edge-animation-fast{stroke-dasharray:9,5!important;stroke-dashoffset:900;animation:dash 20s linear infinite;stroke-linecap:round;}#mermaid-svg-194 .error-icon{fill:#552222;}#mermaid-svg-194 .error-text{fill:#552222;stroke:#552222;}#mermaid-svg-194 .edge-thickness-normal{stroke-width:1px;}#mermaid-svg-194 .edge-thickness-thick{stroke-width:3.5px;}#mermaid-svg-194 .edge-pattern-solid{stroke-dasharray:0;}#mermaid-svg-194 .edge-thickness-invisible{stroke-width:0;fill:none;}#mermaid-svg-194 .edge-pattern-dashed{stroke-dasharray:3;}#mermaid-svg-194 .edge-pattern-dotted{stroke-dasharray:2;}#mermaid-svg-194 .marker{fill:#333333;stroke:#333333;}#mermaid-svg-194 .marker.cross{stroke:#333333;}#mermaid-svg-194 svg{font-family:"trebuchet ms",verdana,arial,sans-serif;font-size:16px;}#mermaid-svg-194 p{margin:0;}#mermaid-svg-194 .label{font-family:"trebuchet ms",verdana,arial,sans-serif;color:#333;}#mermaid-svg-194 .cluster-label text{fill:#333;}#mermaid-svg-194 .cluster-label span{color:#333;}#mermaid-svg-194 .cluster-label span p{background-color:transparent;}#mermaid-svg-194 .label text,#mermaid-svg-194 span{fill:#333;color:#333;}#mermaid-svg-194 .node rect,#mermaid-svg-194 .node circle,#mermaid-svg-194 .node ellipse,#mermaid-svg-194 .node polygon,#mermaid-svg-194 .node path{fill:#ECECFF;stroke:#9370DB;stroke-width:1px;}#mermaid-svg-194 .rough-node .label text,#mermaid-svg-194 .node .label text,#mermaid-svg-194 .image-shape .label,#mermaid-svg-194 .icon-shape .label{text-anchor:middle;}#mermaid-svg-194 .node .katex path{fill:#000;stroke:#000;stroke-width:1px;}#mermaid-svg-194 .rough-node .label,#mermaid-svg-194 .node .label,#mermaid-svg-194 .image-shape .label,#mermaid-svg-194 .icon-shape .label{text-align:center;}#mermaid-svg-194 .node.clickable{cursor:pointer;}#mermaid-svg-194 .root .anchor path{fill:#333333!important;stroke-width:0;stroke:#333333;}#mermaid-svg-194 .arrowheadPath{fill:#333333;}#mermaid-svg-194 .edgePath .path{stroke:#333333;stroke-width:2.0px;}#mermaid-svg-194 .flowchart-link{stroke:#333333;fill:none;}#mermaid-svg-194 .edgeLabel{background-color:rgba(232,232,232, 0.8);text-align:center;}#mermaid-svg-194 .edgeLabel p{background-color:rgba(232,232,232, 0.8);}#mermaid-svg-194 .edgeLabel rect{opacity:0.5;background-color:rgba(232,232,232, 0.8);fill:rgba(232,232,232, 0.8);}#mermaid-svg-194 .labelBkg{background-color:rgba(232, 232, 232, 0.5);}#mermaid-svg-194 .cluster rect{fill:#ffffde;stroke:#aaaa33;stroke-width:1px;}#mermaid-svg-194 .cluster text{fill:#333;}#mermaid-svg-194 .cluster span{color:#333;}#mermaid-svg-194 div.mermaidTooltip{position:absolute;text-align:center;max-width:200px;padding:2px;font-family:"trebuchet ms",verdana,arial,sans-serif;font-size:12px;background:hsl(80, 100%, 96.2745098039%);border:1px solid #aaaa33;border-radius:2px;pointer-events:none;z-index:100;}#mermaid-svg-194 .flowchartTitleText{text-anchor:middle;font-size:18px;fill:#333;}#mermaid-svg-194 rect.text{fill:none;stroke-width:0;}#mermaid-svg-194 .icon-shape,#mermaid-svg-194 .image-shape{background-color:rgba(232,232,232, 0.8);text-align:center;}#mermaid-svg-194 .icon-shape p,#mermaid-svg-194 .image-shape p{background-color:rgba(232,232,232, 0.8);padding:2px;}#mermaid-svg-194 .icon-shape rect,#mermaid-svg-194 .image-shape rect{opacity:0.5;background-color:rgba(232,232,232, 0.8);fill:rgba(232,232,232, 0.8);}#mermaid-svg-194 .label-icon{display:inline-block;height:1em;overflow:visible;vertical-align:-0.125em;}#mermaid-svg-194 .node .label-icon path{fill:currentColor;stroke:revert;stroke-width:revert;}#mermaid-svg-194 :root{--mermaid-font-family:"trebuchet ms",verdana,arial,sans-serif;}#mermaid-svg-194 .init&gt;*{fill:#e3f2fd!important;stroke:#1565c0!important;}#mermaid-svg-194 .init span{fill:#e3f2fd!important;stroke:#1565c0!important;}#mermaid-svg-194 .attention&gt;*{fill:#f3e5f5!important;stroke:#7b1fa2!important;}#mermaid-svg-194 .attention span{fill:#f3e5f5!important;stroke:#7b1fa2!important;}#mermaid-svg-194 .down&gt;*{fill:#e8f5e8!important;stroke:#2e7d32!important;}#mermaid-svg-194 .down span{fill:#e8f5e8!important;stroke:#2e7d32!important;}#mermaid-svg-194 .selayer&gt;*{fill:#fff3e0!important;stroke:#ef6c00!important;}#mermaid-svg-194 .selayer span{fill:#fff3e0!important;stroke:#ef6c00!important;}</style><g><marker id="mermaid-svg-194_flowchart-v2-pointEnd" class="marker flowchart-v2" viewBox="0 0 10 10" refX="5" refY="5" markerUnits="userSpaceOnUse" markerWidth="8" markerHeight="8" orient="auto"><path d="M 0 0 L 10 5 L 0 10 z" class="arrowMarkerPath" style="stroke-width: 1px; stroke-dasharray: 1px, 0px;"/></marker><marker id="mermaid-svg-194_flowchart-v2-pointStart" class="marker flowchart-v2" viewBox="0 0 10 10" refX="4.5" refY="5" markerUnits="userSpaceOnUse" markerWidth="8" markerHeight="8" orient="auto"><path d="M 0 5 L 10 10 L 10 0 z" class="arrowMarkerPath" style="stroke-width: 1px; stroke-dasharray: 1px, 0px;"/></marker><marker id="mermaid-svg-194_flowchart-v2-circleEnd" class="marker flowchart-v2" viewBox="0 0 10 10" refX="11" refY="5" markerUnits="userSpaceOnUse" markerWidth="11" markerHeight="11" orient="auto"><circle cx="5" cy="5" r="5" class="arrowMarkerPath" style="stroke-width: 1px; stroke-dasharray: 1px, 0px;"/></marker><marker id="mermaid-svg-194_flowchart-v2-circleStart" class="marker flowchart-v2" viewBox="0 0 10 10" refX="-1" refY="5" markerUnits="userSpaceOnUse" markerWidth="11" markerHeight="11" orient="auto"><circle cx="5" cy="5" r="5" class="arrowMarkerPath" style="stroke-width: 1px; stroke-dasharray: 1px, 0px;"/></marker><marker id="mermaid-svg-194_flowchart-v2-crossEnd" class="marker cross flowchart-v2" viewBox="0 0 11 11" refX="12" refY="5.2" markerUnits="userSpaceOnUse" markerWidth="11" markerHeight="11" orient="auto"><path d="M 1,1 l 9,9 M 10,1 l -9,9" class="arrowMarkerPath" style="stroke-width: 2px; stroke-dasharray: 1px, 0px;"/></marker><marker id="mermaid-svg-194_flowchart-v2-crossStart" class="marker cross flowchart-v2" viewBox="0 0 11 11" refX="-1" refY="5.2" markerUnits="userSpaceOnUse" markerWidth="11" markerHeight="11" orient="auto"><path d="M 1,1 l 9,9 M 10,1 l -9,9" class="arrowMarkerPath" style="stroke-width: 2px; stroke-dasharray: 1px, 0px;"/></marker><g class="root"><g class="clusters"/><g class="edgePaths"/><g class="edgeLabels"/><g class="nodes"><g class="root" transform="translate(0, 95.4375)"><g class="clusters"><g class="cluster" id="subGraph4" data-look="classic"><rect style="" x="8" y="8" width="2073.3499755859375" height="189"/><g class="cluster-label" transform="translate(993.1749877929688, 8)"><foreignObject width="103" height="24"><div style="display: table-cell; white-space: nowrap; line-height: 1.5; max-width: 200px; text-align: center;" xmlns="http://www.w3.org/1999/xhtml"><span class="nodeLabel"><p>SELayer Detail</p></span></div></foreignObject></g></g></g><g class="edgePaths"><path d="M192.083,110.476L198.333,112.564C204.583,114.651,217.083,118.825,228.917,120.913C240.75,123,251.917,123,257.5,123L263.083,123" id="L_IN_SE_POOL_0" class="edge-thickness-normal edge-pattern-solid edge-thickness-normal edge-pattern-solid flowchart-link" style="" marker-end="url(#mermaid-svg-194_flowchart-v2-pointEnd)"/><path d="M482.15,123L488.4,123C494.65,123,507.15,123,518.983,123C530.817,123,541.983,123,547.567,123L553.15,123" id="L_POOL_FLATTEN_0" class="edge-thickness-normal edge-pattern-solid edge-thickness-normal edge-pattern-solid flowchart-link" style="" marker-end="url(#mermaid-svg-194_flowchart-v2-pointEnd)"/><path d="M658.233,123L664.483,123C670.733,123,683.233,123,695.067,123C706.9,123,718.067,123,723.65,123L729.233,123" id="L_FLATTEN_FC1_0" class="edge-thickness-normal edge-pattern-solid edge-thickness-normal edge-pattern-solid flowchart-link" style="" marker-end="url(#mermaid-svg-194_flowchart-v2-pointEnd)"/><path d="M915.167,123L921.417,123C927.667,123,940.167,123,952,123C963.833,123,975,123,980.583,123L986.167,123" id="L_FC1_ACTIV_0" class="edge-thickness-normal edge-pattern-solid edge-thickness-normal edge-pattern-solid flowchart-link" style="" marker-end="url(#mermaid-svg-194_flowchart-v2-pointEnd)"/><path d="M1080.917,123L1087.167,123C1093.417,123,1105.917,123,1117.75,123C1129.583,123,1140.75,123,1146.333,123L1151.917,123" id="L_ACTIV_FC2_0" class="edge-thickness-normal edge-pattern-solid edge-thickness-normal edge-pattern-solid flowchart-link" style="" marker-end="url(#mermaid-svg-194_flowchart-v2-pointEnd)"/><path d="M1337.85,123L1344.1,123C1350.35,123,1362.85,123,1374.683,123C1386.517,123,1397.683,123,1403.267,123L1408.85,123" id="L_FC2_SIGMOID_0" class="edge-thickness-normal edge-pattern-solid edge-thickness-normal edge-pattern-solid flowchart-link" style="" marker-end="url(#mermaid-svg-194_flowchart-v2-pointEnd)"/><path d="M192.083,61.524L198.333,59.436C204.583,57.349,217.083,53.175,247.506,51.087C277.928,49,326.272,49,374.617,49C422.961,49,471.306,49,510.151,49C548.997,49,578.344,49,607.692,49C637.039,49,666.386,49,702.471,49C738.556,49,781.378,49,824.2,49C867.022,49,909.844,49,945.068,49C980.292,49,1007.917,49,1035.542,49C1063.167,49,1090.792,49,1126.015,49C1161.239,49,1204.061,49,1246.883,49C1289.706,49,1332.528,49,1369.826,49C1407.125,49,1438.9,49,1470.675,49C1502.45,49,1534.225,49,1556.082,50.504C1577.94,52.008,1589.88,55.015,1595.849,56.519L1601.819,58.023" id="L_IN_SE_MULT_0" class="edge-thickness-normal edge-pattern-solid edge-thickness-normal edge-pattern-solid flowchart-link" style="" marker-end="url(#mermaid-svg-194_flowchart-v2-pointEnd)"/><path d="M1528.5,123L1534.75,123C1541,123,1553.5,123,1565.72,121.496C1577.94,119.992,1589.88,116.985,1595.849,115.481L1601.819,113.977" id="L_SIGMOID_MULT_0" class="edge-thickness-normal edge-pattern-solid edge-thickness-normal edge-pattern-solid flowchart-link" style="" marker-end="url(#mermaid-svg-194_flowchart-v2-pointEnd)"/><path d="M1822.267,86L1828.517,86C1834.767,86,1847.267,86,1859.1,86C1870.933,86,1882.1,86,1887.683,86L1893.267,86" id="L_MULT_OUT_SE_0" class="edge-thickness-normal edge-pattern-solid edge-thickness-normal edge-pattern-solid flowchart-link" style="" marker-end="url(#mermaid-svg-194_flowchart-v2-pointEnd)"/></g><g class="edgeLabels"><g class="edgeLabel"><g class="label" transform="translate(0, 0)"><foreignObject width="0" height="0"><div style="display: table-cell; white-space: nowrap; line-height: 1.5; max-width: 200px; text-align: center;" xmlns="http://www.w3.org/1999/xhtml" class="labelBkg"><span class="edgeLabel"></span></div></foreignObject></g></g><g class="edgeLabel"><g class="label" transform="translate(0, 0)"><foreignObject width="0" height="0"><div style="display: table-cell; white-space: nowrap; line-height: 1.5; max-width: 200px; text-align: center;" xmlns="http://www.w3.org/1999/xhtml" class="labelBkg"><span class="edgeLabel"></span></div></foreignObject></g></g><g class="edgeLabel"><g class="label" transform="translate(0, 0)"><foreignObject width="0" height="0"><div style="display: table-cell; white-space: nowrap; line-height: 1.5; max-width: 200px; text-align: center;" xmlns="http://www.w3.org/1999/xhtml" class="labelBkg"><span class="edgeLabel"></span></div></foreignObject></g></g><g class="edgeLabel"><g class="label" transform="translate(0, 0)"><foreignObject width="0" height="0"><div style="display: table-cell; white-space: nowrap; line-height: 1.5; max-width: 200px; text-align: center;" xmlns="http://www.w3.org/1999/xhtml" class="labelBkg"><span class="edgeLabel"></span></div></foreignObject></g></g><g class="edgeLabel"><g class="label" transform="translate(0, 0)"><foreignObject width="0" height="0"><div style="display: table-cell; white-space: nowrap; line-height: 1.5; max-width: 200px; text-align: center;" xmlns="http://www.w3.org/1999/xhtml" class="labelBkg"><span class="edgeLabel"></span></div></foreignObject></g></g><g class="edgeLabel"><g class="label" transform="translate(0, 0)"><foreignObject width="0" height="0"><div style="display: table-cell; white-space: nowrap; line-height: 1.5; max-width: 200px; text-align: center;" xmlns="http://www.w3.org/1999/xhtml" class="labelBkg"><span class="edgeLabel"></span></div></foreignObject></g></g><g class="edgeLabel"><g class="label" transform="translate(0, 0)"><foreignObject width="0" height="0"><div style="display: table-cell; white-space: nowrap; line-height: 1.5; max-width: 200px; text-align: center;" xmlns="http://www.w3.org/1999/xhtml" class="labelBkg"><span class="edgeLabel"></span></div></foreignObject></g></g><g class="edgeLabel"><g class="label" transform="translate(0, 0)"><foreignObject width="0" height="0"><div style="display: table-cell; white-space: nowrap; line-height: 1.5; max-width: 200px; text-align: center;" xmlns="http://www.w3.org/1999/xhtml" class="labelBkg"><span class="edgeLabel"></span></div></foreignObject></g></g><g class="edgeLabel"><g class="label" transform="translate(0, 0)"><foreignObject width="0" height="0"><div style="display: table-cell; white-space: nowrap; line-height: 1.5; max-width: 200px; text-align: center;" xmlns="http://www.w3.org/1999/xhtml" class="labelBkg"><span class="edgeLabel"></span></div></foreignObject></g></g></g><g class="nodes"><g class="node default" id="flowchart-IN_SE-33" transform="translate(118.79166412353516, 86)"><rect class="basic label-container" style="" x="-73.29166412353516" y="-27" width="146.5833282470703" height="54"/><g class="label" style="" transform="translate(-43.291664123535156, -12)"><rect/><foreignObject width="86.58332824707031" height="24"><div style="display: table-cell; white-space: nowrap; line-height: 1.5; max-width: 200px; text-align: center;" xmlns="http://www.w3.org/1999/xhtml"><span class="nodeLabel"><p>[B, C, H, W]</p></span></div></foreignObject></g></g><g class="node default" id="flowchart-POOL-34" transform="translate(374.61666107177734, 123)"><rect class="basic label-container" style="" x="-107.53333282470703" y="-27" width="215.06666564941406" height="54"/><g class="label" style="" transform="translate(-77.53333282470703, -12)"><rect/><foreignObject width="155.06666564941406" height="24"><div style="display: table-cell; white-space: nowrap; line-height: 1.5; max-width: 200px; text-align: center;" xmlns="http://www.w3.org/1999/xhtml"><span class="nodeLabel"><p>AdaptiveAvgPool2d(1)</p></span></div></foreignObject></g></g><g class="node default" id="flowchart-FLATTEN-35" transform="translate(607.6916580200195, 123)"><rect class="basic label-container" style="" x="-50.541664123535156" y="-39" width="101.08332824707031" height="78"/><g class="label" style="" transform="translate(-20.541664123535156, -24)"><rect/><foreignObject width="41.08332824707031" height="48"><div style="display: table-cell; white-space: nowrap; line-height: 1.5; max-width: 200px; text-align: center;" xmlns="http://www.w3.org/1999/xhtml"><span class="nodeLabel"><p>View<br />[B, C]</p></span></div></foreignObject></g></g><g class="node default" id="flowchart-FC1-36" transform="translate(824.1999893188477, 123)"><rect class="basic label-container" style="" x="-90.96666717529297" y="-39" width="181.93333435058594" height="78"/><g class="label" style="" transform="translate(-60.96666717529297, -24)"><rect/><foreignObject width="121.93333435058594" height="48"><div style="display: table-cell; white-space: nowrap; line-height: 1.5; max-width: 200px; text-align: center;" xmlns="http://www.w3.org/1999/xhtml"><span class="nodeLabel"><p>Linear<br />C → C/reduction</p></span></div></foreignObject></g></g><g class="node default" id="flowchart-ACTIV-37" transform="translate(1035.5416564941406, 123)"><rect class="basic label-container" style="" x="-45.375" y="-27" width="90.75" height="54"/><g class="label" style="" transform="translate(-15.375, -12)"><rect/><foreignObject width="30.75" height="24"><div style="display: table-cell; white-space: nowrap; line-height: 1.5; max-width: 200px; text-align: center;" xmlns="http://www.w3.org/1999/xhtml"><span class="nodeLabel"><p>SiLU</p></span></div></foreignObject></g></g><g class="node default" id="flowchart-FC2-38" transform="translate(1246.8833236694336, 123)"><rect class="basic label-container" style="" x="-90.96666717529297" y="-39" width="181.93333435058594" height="78"/><g class="label" style="" transform="translate(-60.96666717529297, -24)"><rect/><foreignObject width="121.93333435058594" height="48"><div style="display: table-cell; white-space: nowrap; line-height: 1.5; max-width: 200px; text-align: center;" xmlns="http://www.w3.org/1999/xhtml"><span class="nodeLabel"><p>Linear<br />C/reduction → C</p></span></div></foreignObject></g></g><g class="node default" id="flowchart-SIGMOID-39" transform="translate(1470.6749877929688, 123)"><rect class="basic label-container" style="" x="-57.82499694824219" y="-27" width="115.64999389648438" height="54"/><g class="label" style="" transform="translate(-27.824996948242188, -12)"><rect/><foreignObject width="55.649993896484375" height="24"><div style="display: table-cell; white-space: nowrap; line-height: 1.5; max-width: 200px; text-align: center;" xmlns="http://www.w3.org/1999/xhtml"><span class="nodeLabel"><p>Sigmoid</p></span></div></foreignObject></g></g><g class="node default" id="flowchart-MULT-40" transform="translate(1712.883316040039, 86)"><rect class="basic label-container" style="" x="-109.38333129882812" y="-27" width="218.76666259765625" height="54"/><g class="label" style="" transform="translate(-79.38333129882812, -12)"><rect/><foreignObject width="158.76666259765625" height="24"><div style="display: table-cell; white-space: nowrap; line-height: 1.5; max-width: 200px; text-align: center;" xmlns="http://www.w3.org/1999/xhtml"><span class="nodeLabel"><p>Element-wise Multiply</p></span></div></foreignObject></g></g><g class="node default" id="flowchart-OUT_SE-41" transform="translate(1970.5583114624023, 86)"><rect class="basic label-container" style="" x="-73.29166412353516" y="-27" width="146.5833282470703" height="54"/><g class="label" style="" transform="translate(-43.291664123535156, -12)"><rect/><foreignObject width="86.58332824707031" height="24"><div style="display: table-cell; white-space: nowrap; line-height: 1.5; max-width: 200px; text-align: center;" xmlns="http://www.w3.org/1999/xhtml"><span class="nodeLabel"><p>[B, C, H, W]</p></span></div></foreignObject></g></g></g></g><g class="root" transform="translate(2123.35009765625, 0)"><g class="clusters"><g class="cluster" id="ChannelAttnBlock" data-look="classic"><rect style="" x="8" y="8" width="3240.2833404541016" height="379.875"/><g class="cluster-label" transform="translate(1564.7000045776367, 8)"><foreignObject width="126.88333129882812" height="24"><div style="display: table-cell; white-space: nowrap; line-height: 1.5; max-width: 200px; text-align: center;" xmlns="http://www.w3.org/1999/xhtml"><span class="nodeLabel"><p>ChannelAttnBlock</p></span></div></foreignObject></g></g><g class="cluster" id="Downsampling" data-look="classic"><rect style="" x="2147.3333435058594" y="142.875" width="756.8666687011719" height="172"/><g class="cluster-label" transform="translate(2474.666679382324, 142.875)"><foreignObject width="102.19999694824219" height="24"><div style="display: table-cell; white-space: nowrap; line-height: 1.5; max-width: 200px; text-align: center;" xmlns="http://www.w3.org/1999/xhtml"><span class="nodeLabel"><p>Downsampling</p></span></div></foreignObject></g></g><g class="cluster" id="subGraph1" data-look="classic"><rect style="" x="1301.3666687011719" y="28" width="770.9666748046875" height="309.75"/><g class="cluster-label" transform="translate(1622.1166763305664, 28)"><foreignObject width="129.46665954589844" height="24"><div style="display: table-cell; white-space: nowrap; line-height: 1.5; max-width: 200px; text-align: center;" xmlns="http://www.w3.org/1999/xhtml"><span class="nodeLabel"><p>Channel Attention</p></span></div></foreignObject></g></g><g class="cluster" id="subGraph0" data-look="classic"><rect style="" x="341.71665954589844" y="105.9375" width="884.6500091552734" height="240.875"/><g class="cluster-label" transform="translate(723.7666625976562, 105.9375)"><foreignObject width="120.55000305175781" height="24"><div style="display: table-cell; white-space: nowrap; line-height: 1.5; max-width: 200px; text-align: center;" xmlns="http://www.w3.org/1999/xhtml"><span class="nodeLabel"><p>Initial Processing</p></span></div></foreignObject></g></g></g><g class="edgePaths"><path d="M266.717,162.938L272.967,162.938C279.217,162.938,291.717,162.938,304.217,162.938C316.717,162.938,329.217,162.938,344.111,167.927C359.005,172.917,376.293,182.896,384.937,187.886L393.581,192.875" id="L_INPUT_CONCAT_0" class="edge-thickness-normal edge-pattern-solid edge-thickness-normal edge-pattern-solid flowchart-link" style="" marker-end="url(#mermaid-svg-194_flowchart-v2-pointEnd)"/><path d="M244.85,303.875L254.744,303.875C264.639,303.875,284.428,303.875,300.572,303.875C316.717,303.875,329.217,303.875,343.958,299.038C358.699,294.202,375.682,284.528,384.173,279.691L392.664,274.855" id="L_CONTENT_CONCAT_0" class="edge-thickness-normal edge-pattern-solid edge-thickness-normal edge-pattern-solid flowchart-link" style="" marker-end="url(#mermaid-svg-194_flowchart-v2-pointEnd)"/><path d="M544.571,194.875L551.726,191.385C558.881,187.896,573.19,180.917,585.929,177.427C598.667,173.938,609.833,173.938,615.417,173.938L621,173.938" id="L_CONCAT_NORM1_0" class="edge-thickness-normal edge-pattern-solid edge-thickness-normal edge-pattern-solid flowchart-link" style="" marker-end="url(#mermaid-svg-194_flowchart-v2-pointEnd)"/><path d="M766.583,173.938L772.833,173.938C779.083,173.938,791.583,173.938,803.417,173.938C815.25,173.938,826.417,173.938,832,173.938L837.583,173.938" id="L_NORM1_NONLINEAR_0" class="edge-thickness-normal edge-pattern-solid edge-thickness-normal edge-pattern-solid flowchart-link" style="" marker-end="url(#mermaid-svg-194_flowchart-v2-pointEnd)"/><path d="M971.867,173.938L978.117,173.938C984.367,173.938,996.867,173.938,1008.7,173.938C1020.533,173.938,1031.7,173.938,1037.283,173.938L1042.867,173.938" id="L_NONLINEAR_CONV1_0" class="edge-thickness-normal edge-pattern-solid edge-thickness-normal edge-pattern-solid flowchart-link" style="" marker-end="url(#mermaid-svg-194_flowchart-v2-pointEnd)"/><path d="M1188.867,173.938L1195.117,173.938C1201.367,173.938,1213.867,173.938,1226.367,173.938C1238.867,173.938,1251.367,173.938,1263.867,173.938C1276.367,173.938,1288.867,173.938,1300.783,174.012C1312.7,174.087,1324.034,174.236,1329.7,174.31L1335.367,174.385" id="L_CONV1_CHECK_0" class="edge-thickness-normal edge-pattern-solid edge-thickness-normal edge-pattern-solid flowchart-link" style="" marker-end="url(#mermaid-svg-194_flowchart-v2-pointEnd)"/><path d="M1511.042,152.363L1522.777,148.792C1534.512,145.221,1557.981,138.079,1577.188,134.508C1596.394,130.938,1611.339,130.938,1618.811,130.938L1626.283,130.938" id="L_CHECK_SE_0" class="edge-thickness-normal edge-pattern-solid edge-thickness-normal edge-pattern-solid flowchart-link" style="" marker-end="url(#mermaid-svg-194_flowchart-v2-pointEnd)"/><path d="M1827.4,130.938L1833.65,130.938C1839.9,130.938,1852.4,130.938,1870.686,142.303C1888.972,153.668,1913.043,176.398,1925.079,187.764L1937.115,199.129" id="L_SE_RESIDUAL_0" class="edge-thickness-normal edge-pattern-solid edge-thickness-normal edge-pattern-solid flowchart-link" style="" marker-end="url(#mermaid-svg-194_flowchart-v2-pointEnd)"/><path d="M1511.042,196.512L1522.777,199.916C1534.512,203.32,1557.981,210.129,1594.281,213.533C1630.581,216.938,1679.711,216.938,1726.953,216.938C1774.194,216.938,1819.547,216.938,1847.811,217.581C1876.075,218.224,1887.251,219.51,1892.839,220.153L1898.426,220.796" id="L_CHECK_RESIDUAL_0" class="edge-thickness-normal edge-pattern-solid edge-thickness-normal edge-pattern-solid flowchart-link" style="" marker-end="url(#mermaid-svg-194_flowchart-v2-pointEnd)"/><path d="M531.232,272.875L540.61,278.365C549.988,283.854,568.744,294.833,596.171,300.323C623.597,305.813,659.694,305.813,695.792,305.813C731.889,305.813,767.986,305.813,803.142,305.813C838.297,305.813,872.511,305.813,906.725,305.813C940.939,305.813,975.153,305.813,1010.343,305.813C1045.533,305.813,1081.7,305.813,1117.867,305.813C1154.033,305.813,1190.2,305.813,1214.533,305.813C1238.867,305.813,1251.367,305.813,1263.867,305.813C1276.367,305.813,1288.867,305.813,1317.513,305.813C1346.158,305.813,1390.95,305.813,1437.631,305.813C1484.311,305.813,1532.881,305.813,1581.731,305.813C1630.581,305.813,1679.711,305.813,1726.953,305.813C1774.194,305.813,1819.547,305.813,1852.908,297.887C1886.269,289.961,1907.638,274.11,1918.322,266.184L1929.006,258.258" id="L_CONCAT_RESIDUAL_0" class="edge-thickness-normal edge-pattern-solid edge-thickness-normal edge-pattern-solid flowchart-link" style="" marker-end="url(#mermaid-svg-194_flowchart-v2-pointEnd)"/><path d="M2034.833,228.875L2041.083,228.875C2047.333,228.875,2059.833,228.875,2072.333,228.875C2084.833,228.875,2097.333,228.875,2109.833,228.875C2122.333,228.875,2134.833,228.875,2146.667,228.875C2158.5,228.875,2169.667,228.875,2175.25,228.875L2180.833,228.875" id="L_RESIDUAL_NORM3_0" class="edge-thickness-normal edge-pattern-solid edge-thickness-normal edge-pattern-solid flowchart-link" style="" marker-end="url(#mermaid-svg-194_flowchart-v2-pointEnd)"/><path d="M2326.417,228.875L2332.667,228.875C2338.917,228.875,2351.417,228.875,2363.25,228.875C2375.083,228.875,2386.25,228.875,2391.833,228.875L2397.417,228.875" id="L_NORM3_NONLINEAR2_0" class="edge-thickness-normal edge-pattern-solid edge-thickness-normal edge-pattern-solid flowchart-link" style="" marker-end="url(#mermaid-svg-194_flowchart-v2-pointEnd)"/><path d="M2531.7,228.875L2537.95,228.875C2544.2,228.875,2556.7,228.875,2568.533,228.875C2580.367,228.875,2591.533,228.875,2597.117,228.875L2602.7,228.875" id="L_NONLINEAR2_DOWN_0" class="edge-thickness-normal edge-pattern-solid edge-thickness-normal edge-pattern-solid flowchart-link" style="" marker-end="url(#mermaid-svg-194_flowchart-v2-pointEnd)"/><path d="M2866.7,228.875L2872.95,228.875C2879.2,228.875,2891.7,228.875,2904.2,228.875C2916.7,228.875,2929.2,228.875,2941.033,228.875C2952.867,228.875,2964.033,228.875,2969.617,228.875L2975.2,228.875" id="L_DOWN_OUT_0" class="edge-thickness-normal edge-pattern-solid edge-thickness-normal edge-pattern-solid flowchart-link" style="" marker-end="url(#mermaid-svg-194_flowchart-v2-pointEnd)"/></g><g class="edgeLabels"><g class="edgeLabel"><g class="label" transform="translate(0, 0)"><foreignObject width="0" height="0"><div style="display: table-cell; white-space: nowrap; line-height: 1.5; max-width: 200px; text-align: center;" xmlns="http://www.w3.org/1999/xhtml" class="labelBkg"><span class="edgeLabel"></span></div></foreignObject></g></g><g class="edgeLabel"><g class="label" transform="translate(0, 0)"><foreignObject width="0" height="0"><div style="display: table-cell; white-space: nowrap; line-height: 1.5; max-width: 200px; text-align: center;" xmlns="http://www.w3.org/1999/xhtml" class="labelBkg"><span class="edgeLabel"></span></div></foreignObject></g></g><g class="edgeLabel"><g class="label" transform="translate(0, 0)"><foreignObject width="0" height="0"><div style="display: table-cell; white-space: nowrap; line-height: 1.5; max-width: 200px; text-align: center;" xmlns="http://www.w3.org/1999/xhtml" class="labelBkg"><span class="edgeLabel"></span></div></foreignObject></g></g><g class="edgeLabel"><g class="label" transform="translate(0, 0)"><foreignObject width="0" height="0"><div style="display: table-cell; white-space: nowrap; line-height: 1.5; max-width: 200px; text-align: center;" xmlns="http://www.w3.org/1999/xhtml" class="labelBkg"><span class="edgeLabel"></span></div></foreignObject></g></g><g class="edgeLabel"><g class="label" transform="translate(0, 0)"><foreignObject width="0" height="0"><div style="display: table-cell; white-space: nowrap; line-height: 1.5; max-width: 200px; text-align: center;" xmlns="http://www.w3.org/1999/xhtml" class="labelBkg"><span class="edgeLabel"></span></div></foreignObject></g></g><g class="edgeLabel"><g class="label" transform="translate(0, 0)"><foreignObject width="0" height="0"><div style="display: table-cell; white-space: nowrap; line-height: 1.5; max-width: 200px; text-align: center;" xmlns="http://www.w3.org/1999/xhtml" class="labelBkg"><span class="edgeLabel"></span></div></foreignObject></g></g><g class="edgeLabel" transform="translate(1581.4500045776367, 130.9375)"><g class="label" transform="translate(-11.333335876464844, -12)"><foreignObject width="22.666671752929688" height="24"><div style="display: table-cell; white-space: nowrap; line-height: 1.5; max-width: 200px; text-align: center;" xmlns="http://www.w3.org/1999/xhtml" class="labelBkg"><span class="edgeLabel"><p>Yes</p></span></div></foreignObject></g></g><g class="edgeLabel"><g class="label" transform="translate(0, 0)"><foreignObject width="0" height="0"><div style="display: table-cell; white-space: nowrap; line-height: 1.5; max-width: 200px; text-align: center;" xmlns="http://www.w3.org/1999/xhtml" class="labelBkg"><span class="edgeLabel"></span></div></foreignObject></g></g><g class="edgeLabel" transform="translate(1728.8416748046875, 216.9375)"><g class="label" transform="translate(-9.400001525878906, -12)"><foreignObject width="18.800003051757812" height="24"><div style="display: table-cell; white-space: nowrap; line-height: 1.5; max-width: 200px; text-align: center;" xmlns="http://www.w3.org/1999/xhtml" class="labelBkg"><span class="edgeLabel"><p>No</p></span></div></foreignObject></g></g><g class="edgeLabel"><g class="label" transform="translate(0, 0)"><foreignObject width="0" height="0"><div style="display: table-cell; white-space: nowrap; line-height: 1.5; max-width: 200px; text-align: center;" xmlns="http://www.w3.org/1999/xhtml" class="labelBkg"><span class="edgeLabel"></span></div></foreignObject></g></g><g class="edgeLabel"><g class="label" transform="translate(0, 0)"><foreignObject width="0" height="0"><div style="display: table-cell; white-space: nowrap; line-height: 1.5; max-width: 200px; text-align: center;" xmlns="http://www.w3.org/1999/xhtml" class="labelBkg"><span class="edgeLabel"></span></div></foreignObject></g></g><g class="edgeLabel"><g class="label" transform="translate(0, 0)"><foreignObject width="0" height="0"><div style="display: table-cell; white-space: nowrap; line-height: 1.5; max-width: 200px; text-align: center;" xmlns="http://www.w3.org/1999/xhtml" class="labelBkg"><span class="edgeLabel"></span></div></foreignObject></g></g><g class="edgeLabel"><g class="label" transform="translate(0, 0)"><foreignObject width="0" height="0"><div style="display: table-cell; white-space: nowrap; line-height: 1.5; max-width: 200px; text-align: center;" xmlns="http://www.w3.org/1999/xhtml" class="labelBkg"><span class="edgeLabel"></span></div></foreignObject></g></g><g class="edgeLabel"><g class="label" transform="translate(0, 0)"><foreignObject width="0" height="0"><div style="display: table-cell; white-space: nowrap; line-height: 1.5; max-width: 200px; text-align: center;" xmlns="http://www.w3.org/1999/xhtml" class="labelBkg"><span class="edgeLabel"></span></div></foreignObject></g></g></g><g class="nodes"><g class="node default down" id="flowchart-NORM3-9" transform="translate(2255.6250076293945, 228.875)"><rect class="basic label-container" style="fill:#e8f5e8 !important;stroke:#2e7d32 !important" x="-70.79166412353516" y="-27" width="141.5833282470703" height="54"/><g class="label" style="" transform="translate(-40.791664123535156, -12)"><rect/><foreignObject width="81.58332824707031" height="24"><div style="display: table-cell; white-space: nowrap; line-height: 1.5; max-width: 200px; text-align: center;" xmlns="http://www.w3.org/1999/xhtml"><span class="nodeLabel"><p>GroupNorm</p></span></div></foreignObject></g></g><g class="node default" id="flowchart-INPUT-0" transform="translate(156.10832977294922, 162.9375)"><rect class="basic label-container" style="" x="-110.60832977294922" y="-39" width="221.21665954589844" height="78"/><g class="label" style="" transform="translate(-80.60832977294922, -24)"><rect/><foreignObject width="161.21665954589844" height="48"><div style="display: table-cell; white-space: nowrap; line-height: 1.5; max-width: 200px; text-align: center;" xmlns="http://www.w3.org/1999/xhtml"><span class="nodeLabel"><p>Input Feature<br />[B, in_channels, H, W]</p></span></div></foreignObject></g></g><g class="node default init" id="flowchart-CONCAT-2" transform="translate(464.6083297729492, 233.875)"><rect class="basic label-container" style="fill:#e3f2fd !important;stroke:#1565c0 !important" x="-85.39167022705078" y="-39" width="170.78334045410156" height="78"/><g class="label" style="" transform="translate(-55.39167022705078, -24)"><rect/><foreignObject width="110.78334045410156" height="48"><div style="display: table-cell; white-space: nowrap; line-height: 1.5; max-width: 200px; text-align: center;" xmlns="http://www.w3.org/1999/xhtml"><span class="nodeLabel"><p>Concatenate<br />input + content</p></span></div></foreignObject></g></g><g class="node default" id="flowchart-CONTENT-1" transform="translate(156.10832977294922, 303.875)"><rect class="basic label-container" style="" x="-88.74166870117188" y="-39" width="177.48333740234375" height="78"/><g class="label" style="" transform="translate(-58.741668701171875, -24)"><rect/><foreignObject width="117.48333740234375" height="48"><div style="display: table-cell; white-space: nowrap; line-height: 1.5; max-width: 200px; text-align: center;" xmlns="http://www.w3.org/1999/xhtml"><span class="nodeLabel"><p>Content Feature<br />[B, C, H, W]</p></span></div></foreignObject></g></g><g class="node default init" id="flowchart-NORM1-3" transform="translate(695.7916641235352, 173.9375)"><rect class="basic label-container" style="fill:#e3f2fd !important;stroke:#1565c0 !important" x="-70.79166412353516" y="-27" width="141.5833282470703" height="54"/><g class="label" style="" transform="translate(-40.791664123535156, -12)"><rect/><foreignObject width="81.58332824707031" height="24"><div style="display: table-cell; white-space: nowrap; line-height: 1.5; max-width: 200px; text-align: center;" xmlns="http://www.w3.org/1999/xhtml"><span class="nodeLabel"><p>GroupNorm</p></span></div></foreignObject></g></g><g class="node default init" id="flowchart-NONLINEAR-4" transform="translate(906.7249984741211, 173.9375)"><rect class="basic label-container" style="fill:#e3f2fd !important;stroke:#1565c0 !important" x="-65.14167022705078" y="-27" width="130.28334045410156" height="54"/><g class="label" style="" transform="translate(-35.14167022705078, -12)"><rect/><foreignObject width="70.28334045410156" height="24"><div style="display: table-cell; white-space: nowrap; line-height: 1.5; max-width: 200px; text-align: center;" xmlns="http://www.w3.org/1999/xhtml"><span class="nodeLabel"><p>SiLU/Mish</p></span></div></foreignObject></g></g><g class="node default init" id="flowchart-CONV1-5" transform="translate(1117.8666687011719, 173.9375)"><rect class="basic label-container" style="fill:#e3f2fd !important;stroke:#1565c0 !important" x="-71" y="-27" width="142" height="54"/><g class="label" style="" transform="translate(-41, -12)"><rect/><foreignObject width="82" height="24"><div style="display: table-cell; white-space: nowrap; line-height: 1.5; max-width: 200px; text-align: center;" xmlns="http://www.w3.org/1999/xhtml"><span class="nodeLabel"><p>Conv2d 1×1</p></span></div></foreignObject></g></g><g class="node default attention" id="flowchart-CHECK-6" transform="translate(1435.7416687011719, 173.9375)"><polygon points="96.875,0 193.75,-96.875 96.875,-193.75 0,-96.875" class="label-container" transform="translate(-96.375, 96.875)" style="fill:#f3e5f5 !important;stroke:#7b1fa2 !important"/><g class="label" style="" transform="translate(-69.875, -12)"><rect/><foreignObject width="139.75" height="24"><div style="display: table-cell; white-space: nowrap; line-height: 1.5; max-width: 200px; text-align: center;" xmlns="http://www.w3.org/1999/xhtml"><span class="nodeLabel"><p>channel_attn=True?</p></span></div></foreignObject></g></g><g class="node default attention" id="flowchart-SE-7" transform="translate(1728.8416748046875, 130.9375)"><rect class="basic label-container" style="fill:#f3e5f5 !important;stroke:#7b1fa2 !important" x="-98.55833435058594" y="-39" width="197.11666870117188" height="78"/><g class="label" style="" transform="translate(-68.55833435058594, -24)"><rect/><foreignObject width="137.11666870117188" height="48"><div style="display: table-cell; white-space: nowrap; line-height: 1.5; max-width: 200px; text-align: center;" xmlns="http://www.w3.org/1999/xhtml"><span class="nodeLabel"><p>SELayer<br />Squeeze-Excitation</p></span></div></foreignObject></g></g><g class="node default attention" id="flowchart-RESIDUAL-8" transform="translate(1968.6166763305664, 228.875)"><rect class="basic label-container" style="fill:#f3e5f5 !important;stroke:#7b1fa2 !important" x="-66.21666717529297" y="-27" width="132.43333435058594" height="54"/><g class="label" style="" transform="translate(-36.21666717529297, -12)"><rect/><foreignObject width="72.43333435058594" height="24"><div style="display: table-cell; white-space: nowrap; line-height: 1.5; max-width: 200px; text-align: center;" xmlns="http://www.w3.org/1999/xhtml"><span class="nodeLabel"><p>Residual +</p></span></div></foreignObject></g></g><g class="node default down" id="flowchart-NONLINEAR2-10" transform="translate(2466.5583419799805, 228.875)"><rect class="basic label-container" style="fill:#e8f5e8 !important;stroke:#2e7d32 !important" x="-65.14167022705078" y="-27" width="130.28334045410156" height="54"/><g class="label" style="" transform="translate(-35.14167022705078, -12)"><rect/><foreignObject width="70.28334045410156" height="24"><div style="display: table-cell; white-space: nowrap; line-height: 1.5; max-width: 200px; text-align: center;" xmlns="http://www.w3.org/1999/xhtml"><span class="nodeLabel"><p>SiLU/Mish</p></span></div></foreignObject></g></g><g class="node default down" id="flowchart-DOWN-11" transform="translate(2736.7000122070312, 228.875)"><rect class="basic label-container" style="fill:#e8f5e8 !important;stroke:#2e7d32 !important" x="-130" y="-51" width="260" height="102"/><g class="label" style="" transform="translate(-100, -36)"><rect/><foreignObject width="200" height="72"><div style="display: table; white-space: break-spaces; line-height: 1.5; max-width: 200px; text-align: center; width: 200px;" xmlns="http://www.w3.org/1999/xhtml"><span class="nodeLabel"><p>Conv2d 1×1<br />in_channels → out_channels</p></span></div></foreignObject></g></g><g class="node default" id="flowchart-OUT-32" transform="translate(3094.9916763305664, 228.875)"><rect class="basic label-container" style="" x="-115.79166412353516" y="-39" width="231.5833282470703" height="78"/><g class="label" style="" transform="translate(-85.79166412353516, -24)"><rect/><foreignObject width="171.5833282470703" height="48"><div style="display: table-cell; white-space: nowrap; line-height: 1.5; max-width: 200px; text-align: center;" xmlns="http://www.w3.org/1999/xhtml"><span class="nodeLabel"><p>Output<br />[B, out_channels, H, W]</p></span></div></foreignObject></g></g></g></g></g></g></g></svg>